<svg viewBox="0 0 98 60" fill="none" xmlns="http://www.w3.org/2000/svg">
<g id="_components/empty-image">
<path id="PREFIX_v1" opacity="0.8" fill-rule="evenodd" clip-rule="evenodd" d="M19.5178 11.3949C20.5174 8.25092 21.4476 6.29342 22.307 5.52167C24.6869 3.38567 27.9774 4.54817 28.677 4.71467C31.1345 5.30117 30.3354 1.44167 32.444 0.657167C33.8491 0.134417 35.0048 0.773417 35.9116 2.57417C36.7145 0.894167 37.938 0.124667 39.5821 0.261917C42.0487 0.469667 42.9119 8.75792 46.3012 6.94367C49.6912 5.12867 53.8472 4.71392 55.6225 7.41092C56.0062 7.99442 56.1532 7.08917 58.763 3.99842C61.3728 0.906917 63.9751 -0.455083 69.3138 1.34492C71.7412 2.16242 73.7374 4.37867 75.3046 7.99292C75.3046 13.1514 79.1191 16.2054 86.7465 17.1527C98.1891 18.5739 89.3073 30.8132 75.3046 34.3974C61.3012 37.9824 29.0614 39.9174 11.5662 30.8604C-0.0973273 24.8237 2.55319 18.3347 19.517 11.3949H19.5178Z" fill="url(#PREFIX_p1)"/>
<path id="PREFIX_v2" d="M48.2091 56.9799C59.8612 56.9799 69.307 54.8047 69.307 52.1214C69.307 49.4382 59.8612 47.2629 48.2091 47.2629C36.5571 47.2629 27.1112 49.4382 27.1112 52.1214C27.1112 54.8047 36.5571 56.9799 48.2091 56.9799Z" fill="url(#PREFIX_p2)"/>
<path id="PREFIX_v3" opacity="0.675" fill-rule="evenodd" clip-rule="evenodd" d="M83.8284 58.1837C67.9652 62.1422 13.8187 57.6144 8.05553 55.5467C5.25047 54.5394 2.72207 52.6457 0.471081 49.8647C0.219145 49.5537 0.0607881 49.1782 0.0143082 48.7815C-0.0321717 48.3848 0.0351229 47.9831 0.208416 47.6228C0.381708 47.2625 0.653926 46.9584 0.993612 46.7455C1.3333 46.5327 1.72659 46.4198 2.12803 46.4199H96.7463C98.71 51.6234 94.4041 55.5444 83.8284 58.1837Z" fill="url(#PREFIX_p3)"/>
<g id="Group">
<path id="PREFIX_v4" d="M64.3988 39.1008L57.1837 30.7068C57.0131 30.5065 56.801 30.3452 56.562 30.2339C56.323 30.1226 56.0627 30.0639 55.7989 30.0618H40.2847C39.7525 30.0618 39.2467 30.3048 38.8999 30.7068L31.6848 39.1008V43.7088H64.3988V39.1008Z" fill="url(#PREFIX_p4)"/>
<path id="PREFIX_v5" d="M62.3543 43.8782L56.0394 36.5672C55.8867 36.3946 55.6985 36.2567 55.4875 36.1629C55.2765 36.0691 55.0477 36.0215 54.8166 36.0235H41.267C40.8019 36.0235 40.3473 36.2155 40.0442 36.5672L33.7293 43.8782V47.8937H62.3543V43.8782Z" fill="url(#PREFIX_p5)"/>
<path id="PREFIX_v6" d="M64.3987 48.9896C64.3987 49.6294 64.1093 50.2046 63.6524 50.5901L63.5597 50.6651C63.1975 50.9383 62.7553 51.0858 62.3008 51.0851H33.7836C33.5257 51.0851 33.2792 51.0386 33.0516 50.9531L32.9385 50.9081C32.5654 50.743 32.2485 50.4738 32.026 50.1332C31.8035 49.7926 31.685 49.3951 31.6848 48.9889V39.1511H39.6221C40.4988 39.1511 41.2052 39.8689 41.2052 40.7396V40.7509C41.2052 41.6224 41.9198 42.3251 42.7965 42.3251H53.2871C53.7085 42.3247 54.1126 42.1582 54.4108 41.862C54.7091 41.5658 54.8772 41.1641 54.8784 40.7449C54.8784 39.8704 55.5855 39.1511 56.4615 39.1511H64.3995L64.3987 48.9896Z" fill="url(#PREFIX_p6)"/>
</g>
</g>
<defs>
<linearGradient id="PREFIX_p1" x1="50.2677" y1="27.9589" x2="50.2677" y2="-6.30377" gradientUnits="userSpaceOnUse">
<stop stop-color="#DEDEDE" stop-opacity="0"/>
<stop offset="1" stop-color="#A9A9A9" stop-opacity="0.3"/>
</linearGradient>
<linearGradient id="PREFIX_p2" x1="46.0107" y1="56.9799" x2="46.0107" y2="47.2629" gradientUnits="userSpaceOnUse">
<stop stop-color="white" stop-opacity="0"/>
<stop offset="1" stop-color="#96A1C5" stop-opacity="0.373"/>
</linearGradient>
<linearGradient id="PREFIX_p3" x1="48.6038" y1="59.7537" x2="48.6038" y2="43.7965" gradientUnits="userSpaceOnUse">
<stop stop-color="white" stop-opacity="0"/>
<stop offset="1" stop-color="#919191" stop-opacity="0.15"/>
</linearGradient>
<linearGradient id="PREFIX_p4" x1="48.0418" y1="30.0618" x2="48.0418" y2="36.1961" gradientUnits="userSpaceOnUse">
<stop stop-color="#00ADB5"/>
<stop offset="1" stop-color="#008F96"/>
</linearGradient>
<linearGradient id="PREFIX_p5" x1="51.8618" y1="47.8937" x2="51.8618" y2="35.3924" gradientUnits="userSpaceOnUse">
<stop stop-color="#A0C5C7"/>
<stop offset="1" stop-color="#72B3B6"/>
</linearGradient>
<linearGradient id="PREFIX_p6" x1="48.0422" y1="39.1511" x2="48.0422" y2="51.0851" gradientUnits="userSpaceOnUse">
<stop stop-color="#4CACB0"/>
<stop offset="1" stop-color="#78B2B5"/>
</linearGradient>
</defs>
</svg>
