<svg width="690" height="136" viewBox="0 0 690 136" fill="none" xmlns="http://www.w3.org/2000/svg">
<rect x="0.5" y="0.5" width="209" height="135" rx="24.5" fill="white"/>
<rect x="0.5" y="0.5" width="209" height="135" rx="24.5" stroke="#D6DCE5"/>
<path d="M103.728 46.1627L94.0263 91.514H82.2948L91.9981 46.1627H103.728ZM153.087 75.4462L159.263 58.4152L162.818 75.4462H153.087ZM166.176 91.514H177.028L167.559 46.1627H157.542C155.292 46.1627 153.393 47.4717 152.547 49.4899L134.946 91.514H147.266L149.712 84.7418H164.764L166.176 91.514ZM135.558 76.7064C135.608 64.7367 119.005 64.0778 119.12 58.731C119.154 57.1018 120.706 55.3736 124.095 54.9301C125.779 54.7104 130.408 54.5425 135.664 56.9611L137.723 47.344C134.899 46.3191 131.266 45.333 126.748 45.333C115.152 45.333 106.991 51.498 106.922 60.3257C106.849 66.8539 112.748 70.4969 117.194 72.6672C121.764 74.8907 123.3 76.3146 123.28 78.3026C123.249 81.3471 119.634 82.6877 116.261 82.7408C110.361 82.8341 106.938 81.149 104.209 79.8772L102.083 89.8145C104.823 91.0733 109.883 92.1671 115.132 92.223C127.455 92.223 135.518 86.1341 135.558 76.7064ZM86.9642 46.1627L67.9567 91.514H55.5535L46.2004 55.3205C45.632 53.0913 45.1382 52.276 43.4115 51.3358C40.5938 49.8071 35.9359 48.3703 31.8379 47.4804L32.1178 46.1627H52.0798C54.6233 46.1627 56.9128 47.8564 57.4898 50.7861L62.4304 77.0308L74.6384 46.1627H86.9642Z" fill="#1434CB"/>
<rect x="240.5" y="0.5" width="209" height="135" rx="24.5" fill="white"/>
<rect x="240.5" y="0.5" width="209" height="135" rx="24.5" stroke="#D6DCE5"/>
<path d="M359.941 40.483H329.316V95.517H359.941V40.483Z" fill="#FF5F00"/>
<path d="M331.261 68C331.256 62.6998 332.457 57.468 334.773 52.7006C337.089 47.9333 340.46 43.7553 344.629 40.483C339.466 36.4246 333.265 33.9007 326.735 33.1999C320.205 32.499 313.61 33.6495 307.703 36.5197C301.796 39.39 296.816 43.8642 293.332 49.4311C289.848 54.9979 288 61.4327 288 68C288 74.5673 289.848 81.0021 293.332 86.5689C296.816 92.1358 301.796 96.61 307.703 99.4803C313.61 102.351 320.205 103.501 326.735 102.8C333.265 102.099 339.466 99.5754 344.629 95.517C340.46 92.2447 337.089 88.0667 334.773 83.2993C332.457 78.532 331.256 73.3002 331.261 68Z" fill="#EB001B"/>
<path d="M401.256 68C401.256 74.5672 399.409 81.002 395.925 86.5688C392.441 92.1357 387.461 96.6099 381.554 99.4802C375.647 102.35 369.052 103.501 362.523 102.8C355.993 102.099 349.792 99.5754 344.629 95.517C348.795 92.2414 352.162 88.0627 354.478 83.2961C356.794 78.5295 357.997 73.2993 357.997 68C357.997 62.7007 356.794 57.4705 354.478 52.7039C352.162 47.9373 348.795 43.7586 344.629 40.483C349.792 36.4246 355.993 33.9007 362.523 33.1999C369.052 32.499 375.647 33.6495 381.554 36.5198C387.461 39.3901 392.441 43.8643 395.925 49.4312C399.409 54.998 401.256 61.4328 401.256 68Z" fill="#F79E1B"/>
<path d="M397.917 89.6881V88.5613H398.371V88.3318H397.214V88.5613H397.669V89.6881H397.917ZM400.163 89.6881V88.3296H399.809L399.401 89.264L398.993 88.3296H398.638V89.6881H398.888V88.6633L399.271 89.5468H399.531L399.913 88.6611V89.6881H400.163Z" fill="#F79E1B"/>
<rect x="480.5" y="0.5" width="209" height="135" rx="24.5" fill="#006FCF"/>
<rect x="480.5" y="0.5" width="209" height="135" rx="24.5" stroke="#D6DCE5"/>
<path fill-rule="evenodd" clip-rule="evenodd" d="M689.079 25.2613H671.862L662.863 51.086L653.473 25.2613H635.865V65.4722L617.866 25.2613H603.39L585.391 66.3451H597.911L601.433 58.1288H620.214L623.736 66.3451H647.212V37.7817L657.777 66.3451H667.558L678.123 37.7817V66.3451H689.079V72.6053H674.601L662.863 85.5176L650.734 72.6053H601.042V113.689H650.343L662.472 100.386L674.601 113.689H689.079V118.775H671.862L662.472 108.602L653.081 118.775H594.782V71.8226H576L599.477 19H622.17L630.387 36.9991V19H658.559L663.254 32.695L667.95 19H689.079V25.2613ZM689.079 81.6043L678.515 92.9513L689.079 104.298V113.689L669.906 92.9513L689.079 72.6053V81.6043ZM635.865 113.689V103.907H612.389V97.6472H635.474V88.2564H612.389V81.9962H635.865V72.6053L655.429 92.9513L635.865 113.689ZM604.954 49.1287L610.433 35.8256L615.91 49.1287H604.954Z" fill="white"/>
</svg>
