<svg width="170" height="60" viewBox="0 0 170 60" fill="none" xmlns="http://www.w3.org/2000/svg">
<path d="M69.6675 56.0278V21.6011C69.6675 15.2628 74.796 10.1343 81.1343 10.1343L91.2861 10.1606C97.5981 10.1606 102.7 15.2891 102.7 21.6011V28.9388C102.7 35.2771 97.5718 40.4056 91.2335 40.4056H76.9" stroke="#939598" stroke-width="2.6086" stroke-miterlimit="7.7732" stroke-linecap="round" stroke-linejoin="round"/>
<path d="M105.559 10.1432H109.977C112.581 10.1432 114.685 12.2472 114.685 14.8509V40.5723" stroke="#939598" stroke-width="2.6086" stroke-miterlimit="7.7732" stroke-linecap="round" stroke-linejoin="round"/>
<path d="M113.726 6.16087L111.727 4.16207C111.228 3.66237 111.228 2.87337 111.727 2.37367L113.726 0.37487C114.226 -0.12483 115.041 -0.12483 115.515 0.37487L117.513 2.37367C118.013 2.87337 118.013 3.66237 117.513 4.16207L115.515 6.16087C115.015 6.66057 114.226 6.66057 113.726 6.16087Z" fill="#32BCAD"/>
<path d="M123.127 10.1209H127.493C129.755 10.1209 131.912 11.0151 133.49 12.5931L143.72 22.8238C145.035 24.1388 147.192 24.1388 148.507 22.8238L158.685 12.6457C160.263 11.0677 162.42 10.1735 164.681 10.1735H168.232" stroke="#939598" stroke-width="2.6086" stroke-miterlimit="7.7732" stroke-linecap="round" stroke-linejoin="round"/>
<path d="M123.127 40.332H127.493C129.755 40.332 131.912 39.4378 133.49 37.8598L143.72 27.6291C145.035 26.3141 147.192 26.3141 148.507 27.6291L158.685 37.8072C160.263 39.3852 162.42 40.2794 164.681 40.2794H168.232" stroke="#939598" stroke-width="2.6086" stroke-miterlimit="7.7732" stroke-linecap="round" stroke-linejoin="round"/>
<path d="M43.6069 46.8632C41.424 46.8632 39.3463 46.0215 37.7946 44.4698L29.4049 36.0802C28.8263 35.5016 27.8006 35.5016 27.1957 36.0802L18.7797 44.4962C17.228 46.0479 15.1766 46.8895 12.9674 46.8895H11.3105L21.9357 57.5146C25.2495 60.8284 30.641 60.8284 33.9548 57.5146L44.6063 46.8632H43.6069Z" fill="#32BCAD"/>
<path d="M12.9821 17.1965C15.165 17.1965 17.2427 18.0381 18.7944 19.5898L27.2104 28.0058C27.8153 28.6107 28.8147 28.6107 29.4196 28.0058L37.8093 19.6161C39.361 18.0644 41.4124 17.2228 43.6216 17.2228H44.621L33.9695 6.5713C30.6557 3.2575 25.2642 3.2575 21.9504 6.5713L11.3252 17.1965H12.9821Z" fill="#32BCAD"/>
<path d="M53.4284 26.039L46.9849 19.5955C46.8534 19.6481 46.6956 19.7007 46.5378 19.7007H43.6185C42.0931 19.7007 40.6203 20.3056 39.542 21.3839L31.1523 29.7736C30.3633 30.5626 29.3376 30.9571 28.3119 30.9571C27.2862 30.9571 26.2605 30.5626 25.4715 29.7736L17.0556 21.3576C15.9773 20.2793 14.5045 19.6744 12.9791 19.6744H9.37595C9.21815 19.6744 9.08665 19.6481 8.95515 19.5955L2.48535 26.0653C-0.82845 29.3791 -0.82845 34.7706 2.48535 38.0844L8.95515 44.5542C9.08665 44.5016 9.24445 44.4753 9.37595 44.4753H12.9791C14.5045 44.4753 15.9773 43.8704 17.0556 42.7921L25.4715 34.3761C26.9969 32.8507 29.6532 32.8507 31.1523 34.3761L39.542 42.7658C40.6203 43.8441 42.0931 44.449 43.6185 44.449H46.5378C46.6956 44.449 46.8534 44.4753 46.9849 44.5279L53.4284 38.0844C56.7422 34.7443 56.7422 29.3791 53.4284 26.039Z" fill="#32BCAD"/>
<path d="M78.4057 53.1022C77.9323 53.1022 77.38 53.2074 76.8277 53.3389V55.4429C77.1959 55.5744 77.643 55.6533 78.0638 55.6533C79.1158 55.6533 79.6155 55.3114 79.6155 54.3646C79.5892 53.4967 79.1947 53.1022 78.4057 53.1022ZM76.4595 56.9946V52.8392H76.7488L76.7751 53.0233C77.2748 52.9181 77.9323 52.7603 78.4057 52.7603C78.8002 52.7603 79.1684 52.8129 79.484 53.0759C79.8522 53.3652 79.9574 53.8386 79.9574 54.3646C79.9574 54.9169 79.7733 55.4166 79.2736 55.7059C78.9317 55.89 78.4583 55.9689 78.0638 55.9689C77.643 55.9689 77.2222 55.89 76.8014 55.7848V56.9946H76.4595Z" fill="#939598"/>
<path d="M82.626 53.0904C81.574 53.0904 81.1006 53.4323 81.1006 54.3528C81.1006 55.247 81.574 55.6415 82.626 55.6415C83.678 55.6415 84.1514 55.3259 84.1514 54.3791C84.1251 53.5112 83.678 53.0904 82.626 53.0904ZM83.9673 55.6678C83.6254 55.9308 83.152 55.9834 82.626 55.9834C82.0737 55.9834 81.6003 55.9045 81.2584 55.6678C80.8639 55.4048 80.7061 54.9577 80.7061 54.4054C80.7061 53.8531 80.8639 53.406 81.2584 53.1167C81.6003 52.88 82.0737 52.8011 82.626 52.8011C83.1783 52.8011 83.6254 52.88 83.9673 53.1167C84.3618 53.406 84.5196 53.8531 84.5196 54.3791C84.5196 54.9314 84.3618 55.3785 83.9673 55.6678Z" fill="#939598"/>
<path d="M88.9572 55.8853L87.7737 53.3605H87.7474L86.5902 55.8853H86.2746L85.0122 52.8608H85.4067L86.4587 55.4119H86.485L87.6159 52.8608H87.9315L89.0887 55.4119H89.115L90.1407 52.8608H90.5089L89.2465 55.8853H88.9572Z" fill="#939598"/>
<path d="M92.7929 53.0841C91.8198 53.0841 91.4779 53.5049 91.4253 54.1361H94.1605C94.1079 53.4523 93.766 53.0841 92.7929 53.0841ZM92.7666 55.9771C92.188 55.9771 91.7935 55.8981 91.5042 55.6352C91.1623 55.3196 91.0308 54.8725 91.0308 54.3728C91.0308 53.8731 91.1886 53.3734 91.5831 53.0841C91.925 52.8474 92.3458 52.7685 92.7666 52.7685C93.1611 52.7685 93.6082 52.8211 93.9764 53.0578C94.4235 53.3471 94.5024 53.8731 94.5024 54.4517H91.399C91.399 55.0829 91.6094 55.6352 92.7929 55.6352C93.3452 55.6352 93.8712 55.5563 94.3709 55.4511V55.7666C93.8712 55.8718 93.3189 55.9771 92.7666 55.9771Z" fill="#939598"/>
<path d="M95.5479 55.8853V52.8608H95.8372L95.8635 53.0449C96.4947 52.8871 96.8103 52.7819 97.3626 52.7819H97.4152V53.1238H97.3363C96.8629 53.1238 96.5736 53.1764 95.9161 53.3605V55.9116H95.5479V55.8853Z" fill="#939598"/>
<path d="M99.4769 53.0841C98.5038 53.0841 98.1619 53.5049 98.1093 54.1361H100.845C100.792 53.4523 100.45 53.0841 99.4769 53.0841ZM99.4506 55.9771C98.872 55.9771 98.4775 55.8981 98.1882 55.6352C97.8463 55.3196 97.7148 54.8725 97.7148 54.3728C97.7148 53.8731 97.8726 53.3734 98.2671 53.0841C98.609 52.8474 99.0298 52.7685 99.4506 52.7685C99.8451 52.7685 100.292 52.8211 100.66 53.0578C101.108 53.3471 101.186 53.8731 101.186 54.4517H98.083C98.083 55.0829 98.2934 55.6352 99.4769 55.6352C100.029 55.6352 100.555 55.5563 101.055 55.4511V55.7666C100.555 55.8718 100.003 55.9771 99.4506 55.9771Z" fill="#939598"/>
<path d="M105.098 53.2949C104.73 53.1634 104.283 53.0845 103.862 53.0845C102.81 53.0845 102.311 53.4527 102.311 54.3732C102.311 55.2411 102.731 55.6356 103.52 55.6356C103.994 55.6356 104.546 55.5304 105.098 55.3989V53.2949ZM105.151 55.8986L105.125 55.7145C104.625 55.8197 103.967 55.9775 103.494 55.9775C103.1 55.9775 102.731 55.9249 102.416 55.6619C102.048 55.3726 101.942 54.8992 101.942 54.3732C101.942 53.8209 102.126 53.3212 102.626 53.0319C102.968 52.8215 103.441 52.7426 103.862 52.7426C104.283 52.7426 104.704 52.8215 105.125 52.9267V51.5328H105.467V55.846H105.151V55.8986Z" fill="#939598"/>
<path d="M110.653 53.1025C110.179 53.1025 109.627 53.2077 109.075 53.3392V55.4432C109.469 55.5747 109.89 55.6536 110.311 55.6536C111.363 55.6536 111.863 55.3117 111.863 54.3649C111.836 53.497 111.442 53.1025 110.653 53.1025ZM111.547 55.7062C111.205 55.8903 110.732 55.9692 110.337 55.9692C109.89 55.9692 109.443 55.8903 108.97 55.7325L108.943 55.864H108.707V51.5508H109.048V52.9973C109.548 52.8921 110.179 52.7343 110.653 52.7343C111.047 52.7343 111.415 52.7869 111.731 53.0499C112.099 53.3392 112.204 53.8126 112.204 54.3386C112.231 54.9172 112.047 55.4169 111.547 55.7062Z" fill="#939598"/>
<path d="M112.704 57.0507V56.7088C112.888 56.7351 113.046 56.7351 113.151 56.7351C113.598 56.7351 113.861 56.6036 114.098 56.1039L114.203 55.8672L112.625 52.8427H113.046L114.413 55.4727H114.44L115.728 52.8427H116.123L114.413 56.2617C114.098 56.8929 113.756 57.077 113.151 57.077C112.993 57.1033 112.835 57.077 112.704 57.0507Z" fill="#939598"/>
<path d="M121.005 54.1548H119.822V55.2068H121.005C121.821 55.2068 122.136 55.1279 122.136 54.6808C122.11 54.2074 121.689 54.1548 121.005 54.1548ZM120.769 52.4453H119.796V53.5236H120.769C121.558 53.5236 121.9 53.4184 121.9 52.9713C121.9 52.4979 121.505 52.4453 120.769 52.4453ZM122.61 55.6013C122.189 55.8906 121.663 55.8906 120.69 55.8906H118.901V51.7615H120.663C121.479 51.7615 122.005 51.7615 122.426 52.0245C122.715 52.2086 122.846 52.4716 122.846 52.8398C122.846 53.2606 122.662 53.5499 122.189 53.7603V53.7866C122.715 53.9181 123.057 54.1811 123.057 54.7597C123.057 55.1805 122.899 55.4172 122.61 55.6013Z" fill="#939598"/>
<path d="M126.65 54.6114C126.308 54.5851 125.94 54.5588 125.546 54.5588C124.914 54.5588 124.704 54.6903 124.704 54.9796C124.704 55.2426 124.888 55.4004 125.361 55.4004C125.756 55.4004 126.229 55.3215 126.624 55.2163L126.65 54.6114ZM126.834 55.9001L126.808 55.716C126.282 55.8475 125.677 55.979 125.151 55.979C124.835 55.979 124.467 55.9264 124.231 55.7686C123.994 55.6108 123.889 55.3478 123.889 55.0322C123.889 54.6903 124.046 54.3747 124.388 54.2169C124.704 54.0591 125.125 54.0591 125.519 54.0591C125.835 54.0591 126.256 54.0854 126.624 54.1117V54.0591C126.624 53.5857 126.308 53.4279 125.467 53.4279C125.125 53.4279 124.73 53.4542 124.336 53.4805V52.8756C124.757 52.8493 125.256 52.823 125.651 52.823C126.177 52.823 126.729 52.8756 127.071 53.1123C127.413 53.349 127.492 53.6909 127.492 54.1643V55.9527L126.834 55.9001Z" fill="#939598"/>
<path d="M131.46 55.8853V54.2021C131.46 53.6498 131.171 53.4394 130.671 53.4394C130.303 53.4394 129.83 53.5446 129.435 53.6235V55.859H128.594V52.8608H129.278L129.304 53.0449C129.83 52.9134 130.435 52.7819 130.934 52.7819C131.303 52.7819 131.697 52.8345 131.986 53.0975C132.223 53.3079 132.328 53.6235 132.328 54.0443V55.9116H131.46V55.8853Z" fill="#939598"/>
<path d="M134.696 55.9692C134.302 55.9692 133.881 55.9166 133.565 55.6536C133.197 55.3643 133.092 54.8909 133.092 54.3649C133.092 53.8915 133.25 53.3655 133.723 53.0762C134.091 52.8395 134.565 52.7869 135.064 52.7869C135.406 52.7869 135.748 52.8132 136.143 52.8395V53.497C135.827 53.4707 135.459 53.4444 135.169 53.4444C134.354 53.4444 133.986 53.7074 133.986 54.3912C133.986 55.0487 134.275 55.338 134.933 55.338C135.327 55.338 135.774 55.2591 136.195 55.1802V55.8114C135.695 55.8903 135.169 55.9692 134.696 55.9692Z" fill="#939598"/>
<path d="M138.678 53.4026C137.863 53.4026 137.521 53.6656 137.521 54.3494C137.521 55.0332 137.863 55.3225 138.678 55.3225C139.467 55.3225 139.835 55.0858 139.835 54.3757C139.809 53.7182 139.467 53.4026 138.678 53.4026ZM140.124 55.6644C139.756 55.9274 139.256 55.98 138.678 55.98C138.073 55.98 137.573 55.9011 137.205 55.6644C136.784 55.3751 136.626 54.928 136.626 54.3757C136.626 53.8234 136.784 53.3763 137.205 53.087C137.573 52.8503 138.047 52.7714 138.678 52.7714C139.283 52.7714 139.756 52.8503 140.124 53.087C140.545 53.3763 140.677 53.8234 140.677 54.3757C140.677 54.928 140.545 55.3751 140.124 55.6644Z" fill="#939598"/>
<path d="M145.59 55.9692C145.09 55.9692 144.538 55.8903 144.117 55.5484C143.617 55.1276 143.486 54.4964 143.486 53.8389C143.486 53.234 143.67 52.5239 144.327 52.0768C144.827 51.7612 145.458 51.6823 146.063 51.6823C146.51 51.6823 146.984 51.7086 147.51 51.7612V52.4976C147.063 52.4713 146.537 52.4187 146.116 52.4187C144.932 52.4187 144.433 52.8658 144.433 53.8126C144.433 54.7857 144.906 55.2065 145.774 55.2065C146.326 55.2065 146.957 55.1013 147.615 54.9698V55.7062C146.931 55.8377 146.247 55.9692 145.59 55.9692Z" fill="#939598"/>
<path d="M150.063 53.3067C149.353 53.3067 149.09 53.5697 149.038 54.0168H151.089C151.037 53.5434 150.747 53.3067 150.063 53.3067ZM149.932 55.9893C149.432 55.9893 148.985 55.9367 148.643 55.6474C148.275 55.3581 148.144 54.8847 148.144 54.385C148.144 53.9116 148.301 53.4119 148.722 53.0963C149.09 52.8333 149.564 52.7807 150.063 52.7807C150.484 52.7807 151.01 52.8333 151.378 53.0963C151.878 53.4382 151.904 53.9642 151.904 54.5954H149.011C149.038 55.0688 149.274 55.3581 150.142 55.3581C150.668 55.3581 151.273 55.2792 151.747 55.2003V55.8052C151.168 55.8841 150.537 55.9893 149.932 55.9893Z" fill="#939598"/>
<path d="M155.685 55.8853V54.2021C155.685 53.6498 155.395 53.4394 154.896 53.4394C154.527 53.4394 154.054 53.5446 153.659 53.6235V55.859H152.818V52.8608H153.502L153.528 53.0449C154.054 52.9134 154.659 52.7819 155.159 52.7819C155.527 52.7819 155.921 52.8345 156.211 53.0975C156.447 53.3079 156.552 53.6235 156.552 54.0443V55.9116H155.685V55.8853Z" fill="#939598"/>
<path d="M158.939 55.9692C158.518 55.9692 158.15 55.864 157.966 55.5484C157.808 55.338 157.755 55.0487 157.755 54.6279V53.497H157.15V52.8658H157.755L157.834 51.9453H158.597V52.8658H159.78V53.497H158.597V54.4701C158.597 54.7068 158.623 54.8909 158.676 55.0487C158.755 55.2591 158.965 55.338 159.228 55.338C159.438 55.338 159.675 55.3117 159.833 55.2854V55.8903C159.544 55.9166 159.202 55.9692 158.939 55.9692Z" fill="#939598"/>
<path d="M160.595 55.8853V52.8608H161.279L161.305 53.0449C161.857 52.8871 162.278 52.7819 162.804 52.7819C162.83 52.7819 162.857 52.7819 162.909 52.7819V53.492C162.804 53.492 162.699 53.492 162.62 53.492C162.199 53.492 161.883 53.5446 161.436 53.6498V55.8853H160.595Z" fill="#939598"/>
<path d="M166.008 54.6114C165.666 54.5851 165.298 54.5588 164.903 54.5588C164.272 54.5588 164.062 54.6903 164.062 54.9796C164.062 55.2426 164.246 55.4004 164.719 55.4004C165.114 55.4004 165.587 55.3215 165.982 55.2163L166.008 54.6114ZM166.192 55.9001L166.166 55.716C165.64 55.8475 165.035 55.979 164.509 55.979C164.193 55.979 163.825 55.9264 163.588 55.7686C163.352 55.6108 163.247 55.3478 163.247 55.0322C163.247 54.6903 163.404 54.3747 163.746 54.2169C164.062 54.0591 164.483 54.0591 164.877 54.0591C165.193 54.0591 165.614 54.0854 165.982 54.1117V54.0591C165.982 53.5857 165.666 53.4279 164.825 53.4279C164.483 53.4279 164.088 53.4542 163.694 53.4805V52.8756C164.114 52.8493 164.614 52.823 165.009 52.823C165.535 52.823 166.087 52.8756 166.429 53.1123C166.771 53.349 166.85 53.6909 166.85 54.1643V55.9527L166.192 55.9001Z" fill="#939598"/>
<path d="M167.935 51.573H168.777V55.8862H167.935V51.573Z" fill="#939598"/>
</svg>
