<svg width="120" height="60" viewBox="0 0 120 60" fill="none" xmlns="http://www.w3.org/2000/svg">
<path d="M0 0H1.37627V60H0V0ZM2.75253 0H4.1288V60H2.75253V0ZM11.016 0H12.3922V60H11.016V0ZM37.8049 0H39.1812V60H37.8049V0ZM46.7609 0H48.1372V60H46.7609V0ZM55.4451 0H56.8214V60H55.4451V0ZM57.6834 0H59.0596V60H57.6834V0ZM59.9245 0H61.3008V60H59.9245V0ZM62.4433 0H63.8196V60H62.4433V0ZM64.9621 0H66.3384V60H64.9621V0ZM71.9632 0H73.3395V60H71.9632V0ZM89.3229 0H90.6991V60H89.3229V0ZM107.431 0H108.807V60H107.431V0ZM112.383 0H113.76V60H112.383V0ZM115.963 0H117.339V60H115.963V0ZM118.166 0H119.542V60H118.166V0ZM20.1034 0H21.4797V60H20.1034V0ZM6.33199 0H8.80986V60H6.33199V0ZM22.6865 0H25.1643V60H22.6865V0ZM34.17 0H36.6478V60H34.17V0ZM40.049 0H42.5269V60H40.049V0ZM49.2884 0H51.7663V60H49.2884V0ZM75.6303 0H79.4845V60H75.6303V0ZM80.665 0H83.6951V60H80.665V0ZM85.9772 0H88.455V60H85.9772V0ZM93.0017 0H97.1334V60H93.0017V0ZM101.093 0H105.224V60H101.093V0ZM13.7685 0H18.7242V60H13.7685V0ZM26.6137 0H30.4678V60H26.6137V0Z" fill="#010101"/>
</svg>
