<svg width="102" height="70" viewBox="0 0 102 70" fill="none" xmlns="http://www.w3.org/2000/svg">
<path d="M101.154 33.0749C101.154 14.8543 78.5119 0 50.5787 0C22.6483 0 0.00569195 14.8543 0.00569195 33.0749C0.00569195 33.5473 0 34.8478 0 35.0128C0 54.3433 19.7909 70 50.573 70C81.5457 70 101.154 54.349 101.154 35.0156C101.154 34.3412 101.154 33.9514 101.154 33.0749Z" fill="#0A0080"/>
<path d="M99.2207 33.0617C99.2207 50.2409 77.449 64.1675 50.5915 64.1675C23.734 64.1675 1.96234 50.2409 1.96234 33.0617C1.96234 15.8797 23.734 1.95316 50.5915 1.95316C77.449 1.95316 99.2207 15.8797 99.2207 33.0617Z" fill="#00BCFF"/>
<path d="M34.4391 23.2467C34.4134 23.2951 33.9296 23.7988 34.2427 24.2001C35.0111 25.182 37.3818 25.7426 39.7781 25.2047C41.2039 24.886 43.0339 23.4317 44.8069 22.023C46.7251 20.4975 48.6319 18.9721 50.5473 18.363C52.5736 17.717 53.8742 17.9959 54.7337 18.2549C55.6757 18.5338 56.7828 19.1542 58.5501 20.4804C61.8771 22.982 75.256 34.6619 77.5669 36.6797C79.4311 35.8373 87.7043 32.277 98.9487 29.7981C97.9726 23.8045 94.324 18.3175 88.7943 13.8265C81.0874 17.0653 71.6672 18.7558 62.4577 14.2563C62.4093 14.2364 57.4231 11.8771 52.5081 11.9937C45.1968 12.1617 42.0321 15.3264 38.6824 18.6732L34.4391 23.2467Z" fill="white"/>
<path d="M77.0262 37.9525C76.8696 37.813 61.2936 24.1837 57.7675 21.5341C55.724 20.0029 54.5885 19.6102 53.396 19.4593C52.7756 19.3768 51.9161 19.4935 51.3185 19.6586C49.6764 20.1054 47.5305 21.5398 45.6237 23.051C43.6514 24.6219 41.7902 26.1018 40.0655 26.4889C37.8599 26.9841 35.1676 26.3978 33.9381 25.5697C33.4401 25.2338 33.09 24.8468 32.9221 24.454C32.4667 23.401 33.3035 22.5586 33.4429 22.4192L37.7403 17.7688C38.2412 17.2708 38.7421 16.7727 39.2572 16.2804C37.8713 16.4625 36.5877 16.8154 35.3412 17.1626C33.7844 17.6009 32.2875 18.0164 30.7705 18.0164C30.1387 18.0164 26.7492 17.4615 26.106 17.285C22.2156 16.2206 18.8004 15.1847 13.7032 12.8026C7.59294 17.3533 3.50612 23.0396 2.32504 29.3036C3.20445 29.5369 4.6189 29.9581 5.21371 30.0891C19.0394 33.1627 23.3454 36.3303 24.128 36.9934C24.9733 36.0514 26.1942 35.4566 27.5574 35.4566C29.0857 35.4594 30.466 36.225 31.3027 37.4146C32.0939 36.7885 33.1868 36.2563 34.5984 36.2563C35.2387 36.2563 35.9047 36.3758 36.5763 36.6035C38.1359 37.1385 38.9413 38.1773 39.3597 39.1165C39.8834 38.8803 40.5265 38.7067 41.2836 38.7095C42.0292 38.7095 42.8033 38.8774 43.5831 39.2161C46.1331 40.3089 46.5287 42.8134 46.2982 44.7003C46.4803 44.6804 46.6625 44.6718 46.8475 44.6718C49.8699 44.6747 52.3288 47.1307 52.3288 50.156C52.3288 51.0923 52.0897 51.9717 51.6714 52.743C52.4939 53.2069 54.5913 54.2514 56.4327 54.018C57.9041 53.833 58.4619 53.3293 58.6611 53.0475C58.7977 52.854 58.9428 52.6263 58.8091 52.4641L54.9072 48.1297C54.9072 48.1297 54.2641 47.5206 54.4775 47.2873C54.6966 47.0454 55.0951 47.3926 55.374 47.6259C57.3605 49.2851 59.7852 51.7868 59.7852 51.7868C59.8251 51.8152 59.9873 52.1311 60.8838 52.2933C61.6551 52.4299 63.0211 52.3503 63.966 51.5733C64.205 51.3769 64.4441 51.1322 64.6433 50.8789C64.6291 50.8903 64.6149 50.9102 64.6006 50.9159C65.5967 49.638 64.4896 48.346 64.4896 48.346L59.9332 43.2318C59.9332 43.2318 59.2844 42.6284 59.5035 42.3865C59.7027 42.1759 60.1211 42.4946 60.4085 42.7309C61.8486 43.9376 63.8863 45.981 65.8415 47.8935C66.22 48.1752 67.939 49.2368 70.21 47.7426C71.5903 46.8376 71.8664 45.7277 71.8266 44.8881C71.7326 43.7782 70.8646 42.987 70.8646 42.987L64.6433 36.7316C64.6433 36.7316 63.9859 36.1709 64.2193 35.8863C64.41 35.6472 64.8368 35.9916 65.1158 36.225C67.0966 37.8842 72.4641 42.8049 72.4641 42.8049C72.5409 42.8589 74.3936 44.1795 76.6846 42.7195C77.5043 42.1958 78.0279 41.4075 78.0735 40.4882C78.1503 38.8973 77.0262 37.9525 77.0262 37.9525Z" fill="white"/>
<path d="M46.8553 45.8819C45.8905 45.8705 44.8346 46.4426 44.698 46.36C44.6212 46.3088 44.7549 45.9218 44.846 45.6969C44.9399 45.4749 46.2092 41.6528 43.1128 40.3237C40.7421 39.3077 39.2935 40.4518 38.7955 40.9698C38.6646 41.1064 38.6076 41.095 38.5906 40.9214C38.545 40.2327 38.2348 38.3714 36.1914 37.7453C33.2686 36.8516 31.3874 38.8922 30.9093 39.6293C30.6958 37.9616 29.2899 36.6695 27.5624 36.6667C25.6869 36.6667 24.1672 38.1836 24.1672 40.0591C24.1643 41.9317 25.6841 43.4515 27.5596 43.4515C28.4703 43.4543 29.2956 43.09 29.9046 42.5066C29.9246 42.5237 29.9331 42.555 29.9217 42.6204C29.7794 43.4572 29.5176 46.508 32.7108 47.7517C33.9915 48.2469 35.0815 47.8769 35.9836 47.2451C36.2512 47.0545 36.2967 47.1341 36.2569 47.3874C36.143 48.1729 36.2882 49.8521 38.6446 50.8055C40.4347 51.534 41.4963 50.7884 42.1907 50.148C42.4924 49.872 42.5749 49.9147 42.5892 50.3416C42.6745 52.6126 44.5614 54.4141 46.8496 54.417C49.2089 54.417 51.1214 52.5102 51.1214 50.1537C51.1242 47.7944 49.2146 45.9075 46.8553 45.8819Z" fill="white"/>
<path d="M46.8443 54.1021C44.707 54.0993 42.9681 52.4374 42.8884 50.3231C42.8856 50.141 42.8657 49.6572 42.4587 49.6572C42.2879 49.6572 42.1428 49.7597 41.9749 49.9105C41.5053 50.3459 40.9076 50.7898 40.0339 50.7898C39.6355 50.7898 39.2057 50.6959 38.7532 50.5109C36.4935 49.5975 36.4622 48.0466 36.5533 47.4234C36.5789 47.2555 36.5874 47.0819 36.4736 46.9482L36.3342 46.8258H36.1947C36.0809 46.8258 35.9613 46.8713 35.802 46.9852C35.1474 47.4433 34.5213 47.6653 33.8838 47.6653C33.5337 47.6653 33.1751 47.5941 32.8137 47.4547C29.8425 46.2994 30.0787 43.4936 30.2239 42.6513C30.2438 42.4777 30.2011 42.3468 30.0929 42.2586L29.8823 42.085L29.686 42.2728C29.1082 42.8305 28.3484 43.1379 27.5543 43.1379C25.8496 43.135 24.4636 41.752 24.4664 40.0503C24.4664 38.3458 25.8553 36.9657 27.5572 36.9657C29.0968 36.9657 30.406 38.1238 30.6024 39.6605L30.7077 40.4886L31.163 39.7885C31.2143 39.706 32.4608 37.8193 34.7546 37.8222C35.1901 37.8222 35.6397 37.8905 36.0951 38.0328C37.9222 38.5905 38.2324 40.2467 38.2808 40.9382C38.3121 41.3394 38.5996 41.3593 38.6565 41.3593C38.813 41.3593 38.9297 41.2597 39.0122 41.1715C39.3566 40.813 40.1079 40.2154 41.2833 40.2154C41.8212 40.2154 42.3961 40.3434 42.9852 40.5967C45.8909 41.8431 44.5733 45.5339 44.559 45.5737C44.3086 46.1855 44.2972 46.4559 44.5334 46.6124L44.6472 46.6665H44.7326C44.8635 46.6665 45.0258 46.6095 45.2933 46.5185C45.6889 46.3819 46.2865 46.177 46.8443 46.177H46.8472C49.0329 46.2026 50.8116 47.9811 50.8116 50.1438C50.8088 52.3264 49.03 54.1021 46.8443 54.1021ZM77.6264 36.3112C72.8281 32.1252 61.7402 22.487 58.7377 20.2304C57.0215 18.9413 55.8518 18.2584 54.8245 17.9539C54.3634 17.8145 53.7231 17.6551 52.9006 17.6551C52.1379 17.6551 51.3182 17.7917 50.4616 18.0649C48.5206 18.6795 46.5882 20.2162 44.7155 21.7016L44.6188 21.7785C42.877 23.1643 41.0784 24.5956 39.7152 24.9001C39.1204 25.0339 38.5085 25.1022 37.8994 25.1022C36.3712 25.1022 35.0022 24.6611 34.4871 24.0066C34.4017 23.8956 34.4558 23.722 34.655 23.4688L34.6835 23.4346L38.9041 18.8873C42.2082 15.5806 45.3303 12.4618 52.5192 12.2968C52.6359 12.2939 52.7583 12.2911 52.8778 12.2911C57.3517 12.2939 61.8227 14.2973 62.3236 14.5278C66.5186 16.5738 70.8501 17.6124 75.2016 17.6153C79.7381 17.6181 84.4197 16.4941 89.3404 14.229C88.7912 13.768 88.2191 13.3184 87.63 12.8773C83.307 14.7497 79.1888 15.6973 75.2159 15.6973C71.1546 15.6916 67.102 14.7184 63.1632 12.7976C62.9554 12.698 58.0176 10.3703 52.8778 10.3674C52.744 10.3674 52.6074 10.3703 52.4737 10.3731C46.4374 10.5125 43.0364 12.6582 40.7483 14.5363C38.5256 14.5904 36.6045 15.1253 34.8998 15.6034C33.3743 16.0246 32.0595 16.3916 30.776 16.3916C30.2466 16.3916 29.2961 16.3433 29.2107 16.3404C27.7365 16.2949 20.2999 14.4737 14.386 12.2342C13.7827 12.661 13.2021 13.1021 12.6357 13.5517C18.8143 16.0843 26.3334 18.0421 28.7069 18.1958C29.3672 18.2413 30.0702 18.3153 30.7731 18.3153C32.3441 18.3153 33.9094 17.8771 35.4263 17.4531C36.3199 17.1998 37.3075 16.9266 38.3491 16.7274C38.0702 17.0006 37.7941 17.2766 37.5152 17.5527L33.2292 22.1911C32.8905 22.5325 32.1563 23.4432 32.6401 24.5615C32.8336 25.0139 33.2235 25.4465 33.7699 25.8136C34.7888 26.5022 36.6188 26.9661 38.3206 26.9689C38.9638 26.9689 39.5757 26.9035 40.1364 26.7782C41.9322 26.3742 43.8191 24.8717 45.8169 23.2838C47.4078 22.0203 49.6675 20.4154 51.4007 19.943C51.8846 19.8121 52.4794 19.7296 52.9546 19.7296C53.0969 19.7324 53.2335 19.7353 53.3588 19.7552C54.5029 19.8975 55.6071 20.2873 57.5822 21.7699C61.1027 24.4135 76.6787 38.0385 76.8324 38.1751C76.8409 38.1836 77.8341 39.0373 77.7658 40.463C77.7288 41.2569 77.2877 41.9626 76.5222 42.4521C75.8562 42.8732 75.1703 43.0866 74.4787 43.0866C73.4371 43.0866 72.7199 42.5972 72.6716 42.5659C72.6146 42.5175 67.2784 37.6258 65.3147 35.9811C65.0017 35.7221 64.6971 35.4888 64.3898 35.4888C64.2276 35.4888 64.0824 35.5571 63.9828 35.6823C63.6754 36.0636 64.0198 36.59 64.4296 36.9372L70.6623 43.2005C70.6708 43.209 71.4392 43.9289 71.5218 44.8908C71.573 45.9294 71.075 46.7974 70.0419 47.4746C69.3076 47.9584 68.562 48.206 67.8334 48.206C66.8771 48.206 66.2027 47.7677 66.0547 47.6653L65.161 46.7831C63.5274 45.1753 61.8398 43.5135 60.6046 42.4834C60.3029 42.2329 59.9814 42.0024 59.674 42.0024C59.5232 42.0024 59.3865 42.0565 59.2812 42.1675C59.1418 42.324 59.0422 42.6057 59.3951 43.0724C59.5374 43.2631 59.7081 43.4224 59.7081 43.4224L64.2589 48.5332C64.2958 48.5787 65.1952 49.6487 64.3613 50.713L64.1991 50.915C64.0653 51.0658 63.9173 51.2053 63.7779 51.3248C63.0009 51.9622 61.965 52.0305 61.5552 52.0305C61.336 52.0305 61.1226 52.0106 60.9404 51.9764C60.4908 51.8968 60.1891 51.7715 60.0411 51.598L59.987 51.541C59.7394 51.2849 57.4456 48.943 55.5473 47.3608C55.2997 47.1502 54.9867 46.8856 54.6651 46.8856C54.5057 46.8856 54.3634 46.9482 54.2524 47.0705C53.8767 47.4803 54.4402 48.095 54.6793 48.3226L58.5612 52.5996C58.5555 52.6366 58.5071 52.7248 58.4132 52.8614C58.2738 53.0521 57.8042 53.5245 56.3954 53.7009C56.2275 53.7237 56.0539 53.7322 55.8803 53.7322C54.4289 53.7322 52.8807 53.0265 52.0838 52.6053C52.4481 51.837 52.6359 50.9918 52.6359 50.1467C52.6359 46.951 50.0432 44.3529 46.85 44.3529C46.7817 44.3529 46.7106 44.3529 46.6423 44.3558C46.7447 42.8988 46.5398 40.1385 43.7052 38.9235C42.8884 38.5706 42.0745 38.3913 41.2862 38.3913C40.6657 38.3913 40.0709 38.4966 39.5131 38.71C38.924 37.5689 37.9507 36.738 36.6785 36.3055C35.9756 36.0636 35.2755 35.9384 34.601 35.9384C33.4199 35.9384 32.3356 36.2855 31.3651 36.9742C30.4373 35.8217 29.0342 35.1359 27.5572 35.1359C26.2651 35.1359 25.0214 35.6538 24.1022 36.5673C22.8926 35.6453 18.1028 32.6004 5.27889 29.6893C4.65847 29.5499 3.23548 29.1401 2.36177 28.8869C2.21662 29.5784 2.10563 30.2812 2.03163 30.9898C2.03163 30.9898 4.39664 31.5561 4.86338 31.6614C17.9634 34.5696 22.2893 37.5945 23.0235 38.1665C22.7731 38.7613 22.645 39.4015 22.645 40.0503C22.6422 42.7537 24.845 44.9591 27.5515 44.9619C27.856 44.9619 28.1577 44.9335 28.4508 44.8794C28.8606 46.8713 30.1641 48.3824 32.1534 49.1564C32.7368 49.3784 33.326 49.495 33.9037 49.495C34.2765 49.495 34.655 49.4495 35.0222 49.3556C35.3893 50.289 36.2175 51.4528 38.0674 52.2041C38.7162 52.4659 39.3651 52.6025 39.9941 52.6025C40.5092 52.6025 41.0129 52.5114 41.4939 52.335C42.379 54.4948 44.4907 55.9233 46.8415 55.9233C48.4011 55.9262 49.8981 55.2916 50.9909 54.1676C51.9244 54.6883 53.8967 55.6274 55.8888 55.6302C56.1478 55.6302 56.3897 55.6103 56.6316 55.5819C58.6124 55.3343 59.5317 54.5574 59.9557 53.957C60.0326 53.8517 60.1009 53.7407 60.1607 53.6241C60.6274 53.7606 61.1397 53.8688 61.7288 53.8716C62.8103 53.8716 63.849 53.5017 64.8964 52.7362C65.9266 51.9963 66.658 50.9292 66.7633 50.0215C66.7662 50.0072 66.769 49.9959 66.7719 49.9816C67.1162 50.0528 67.4748 50.0898 67.8306 50.0898C68.9433 50.0898 70.0362 49.7426 71.0835 49.0568C73.1013 47.7364 73.4513 46.0091 73.42 44.8765C73.7701 44.9505 74.1315 44.9875 74.4901 44.9875C75.5346 44.9875 76.562 44.6745 77.5382 44.0513C78.7904 43.2517 79.5417 42.0281 79.6556 40.6024C79.7353 39.6349 79.4962 38.6588 78.9839 37.8194C82.3649 36.3624 90.0918 33.5452 99.1903 31.4935C99.1363 30.7878 99.0338 30.0906 98.9086 29.3962C87.9004 31.8407 79.684 35.3949 77.6264 36.3112Z" fill="#0A0080"/>
</svg>
